<?xml version="1.0" encoding="UTF-8" standalone="no"?>
<svg
   width="804.8019"
   height="175.1268"
   viewBox="0 0 804.8019 175.1268"
   version="1.1"
   id="svg22085"
   sodipodi:docname="logo.svg"
   inkscape:version="1.1.1 (3bf5ae0d25, 2021-09-20)"
   xmlns:inkscape="http://www.inkscape.org/namespaces/inkscape"
   xmlns:sodipodi="http://sodipodi.sourceforge.net/DTD/sodipodi-0.dtd"
   xmlns:xlink="http://www.w3.org/1999/xlink"
   xmlns="http://www.w3.org/2000/svg"
   xmlns:svg="http://www.w3.org/2000/svg">
  <defs
     id="defs22089">
    <linearGradient
       inkscape:collect="always"
       xlink:href="#linearGradient7501"
       id="linearGradient18453"
       gradientUnits="userSpaceOnUse"
       x1="16.747316"
       y1="100.81261"
       x2="169.58281"
       y2="100.81261" />
    <linearGradient
       inkscape:collect="always"
       id="linearGradient7501">
      <stop
         style="stop-color:#8401ff;stop-opacity:1"
         offset="0"
         id="stop7497" />
      <stop
         style="stop-color:#f8006f;stop-opacity:1"
         offset="1"
         id="stop7499" />
    </linearGradient>
    <linearGradient
       inkscape:collect="always"
       xlink:href="#linearGradient7501"
       id="linearGradient22336"
       gradientUnits="userSpaceOnUse"
       x1="16.747316"
       y1="100.81261"
       x2="169.58281"
       y2="100.81261" />
  </defs>
  <sodipodi:namedview
     id="namedview22087"
     pagecolor="#505050"
     bordercolor="#eeeeee"
     borderopacity="1"
     inkscape:pageshadow="0"
     inkscape:pageopacity="0"
     inkscape:pagecheckerboard="0"
     showgrid="false"
     inkscape:zoom="1.3146093"
     inkscape:cx="402.0206"
     inkscape:cy="87.858806"
     inkscape:window-width="1920"
     inkscape:window-height="1009"
     inkscape:window-x="-8"
     inkscape:window-y="-8"
     inkscape:window-maximized="1"
     inkscape:current-layer="svg22085" />
  <text
     x="604.20343"
     y="136.71561"
     fill="#dddddd"
     stroke-width="1.3007"
     font-family="'Trebuchet MS'"
     font-size="62.4353px"
     id="text22077">Infinite</text>
  <g
     id="g17362"
     style="fill:#1d0533;fill-opacity:1;stroke:url(#linearGradient22336);stroke-width:1.5;stroke-miterlimit:4;stroke-dasharray:none;stroke-opacity:1"
     transform="matrix(0.94693849,0,0,0.94693849,198.01662,-38.394636)"
     inkscape:export-filename="C:\Users\Mr. Clean\Pictures\g17362.png"
     inkscape:export-xdpi="489.47925"
     inkscape:export-ydpi="489.47925">
    <g
       id="g30019-1-9-0"
       style="fill:#ff3366;fill-opacity:1;stroke:#ca0033;stroke-width:1.5;stroke-linecap:round;stroke-linejoin:round;stroke-miterlimit:4;stroke-dasharray:none;stroke-opacity:1"
       transform="matrix(-1,0,0,1,211.40501,-147.06004)">
      <g
         id="g17070"
         style="stroke-width:1.5;stroke-linejoin:round;stroke-miterlimit:4;stroke-dasharray:none">
        <path
           id="path16084"
           style="fill:#ff3366;fill-opacity:1;stroke:#ca0033;stroke-width:1.5;stroke-linejoin:round;stroke-miterlimit:4;stroke-dasharray:none;stroke-opacity:1"
           d="m 390.29213,247.5053 c 5.85034,4.86343 9.82341,9.80475 11.90477,17.10944 2.08137,7.30469 2.42147,15.52752 -2.55005,23.23403 -4.97152,7.70651 -16.26453,14.51728 -24.2233,14.54277 -7.18892,-0.11785 -13.85929,-2.2863 -20.01112,-6.50538 -6.38406,-4.40516 -12.00021,-11.49354 -12.00021,-11.49354 -5.32879,-6.32068 -15.94429,-33.63892 -15.94429,-33.63892 0,0 40.92553,-21.45291 62.8242,-3.2484 z m -125.6484,6.4968 c -5.85034,-4.86343 -9.82341,-9.80475 -11.90477,-17.10944 -2.08137,-7.30469 -2.42147,-15.52752 2.55005,-23.23403 4.97152,-7.70651 16.26453,-14.51728 24.2233,-14.54277 7.18892,0.11785 13.85929,2.2863 20.01112,6.50538 6.38406,4.40516 12.00021,11.49354 12.00021,11.49354 5.3288,6.32069 15.94429,33.63892 15.94429,33.63892 0,0 -40.92553,21.45291 -62.8242,3.2484 z" />
      </g>
    </g>
  </g>
  <g
     id="g18413"
     style="fill:#1d0533;fill-opacity:1;stroke:url(#linearGradient18453);stroke-width:1.5;stroke-miterlimit:4;stroke-dasharray:none;stroke-opacity:1"
     transform="matrix(-0.66958663,-0.66958663,0.66958663,-0.66958663,-53.152179,102.59198)"
     inkscape:export-filename="C:\Users\Mr. Clean\Pictures\g17362.png"
     inkscape:export-xdpi="489.47925"
     inkscape:export-ydpi="489.47925">
    <g
       id="g18411"
       style="fill:#6dbeff;fill-opacity:1;stroke:#0078d7;stroke-width:1.5;stroke-linecap:round;stroke-linejoin:round;stroke-miterlimit:4;stroke-dasharray:none;stroke-opacity:1"
       transform="matrix(-1,0,0,1,214.71352,-152.53565)">
      <g
         id="g18409"
         style="fill:#6dbeff;fill-opacity:1;stroke:#0078d7;stroke-width:1.5;stroke-linejoin:round;stroke-miterlimit:4;stroke-dasharray:none;stroke-opacity:1">
        <path
           id="path18407"
           style="fill:#6dbeff;fill-opacity:1;stroke:#0078d7;stroke-width:1.5;stroke-linejoin:round;stroke-miterlimit:4;stroke-dasharray:none;stroke-opacity:1"
           d="m 390.29213,247.5053 c 5.85034,4.86343 9.82341,9.80475 11.90477,17.10944 2.08137,7.30469 2.42147,15.52752 -2.55005,23.23403 -4.97152,7.70651 -16.26453,14.51728 -24.2233,14.54277 -7.18892,-0.11785 -13.85929,-2.2863 -20.01112,-6.50538 -6.38406,-4.40516 -12.00021,-11.49354 -12.00021,-11.49354 -5.32879,-6.32068 -15.94429,-33.63892 -15.94429,-33.63892 0,0 40.92553,-21.45291 62.8242,-3.2484 z m -125.6484,6.4968 c -5.85034,-4.86343 -9.82341,-9.80475 -11.90477,-17.10944 -2.08137,-7.30469 -2.42147,-15.52752 2.55005,-23.23403 4.97152,-7.70651 16.26453,-14.51728 24.2233,-14.54277 7.18892,0.11785 13.85929,2.2863 20.01112,6.50538 6.38406,4.40516 12.00021,11.49354 12.00021,11.49354 5.3288,6.32069 15.94429,33.63892 15.94429,33.63892 0,0 -40.92553,21.45291 -62.8242,3.2484 z" />
      </g>
    </g>
  </g>
  <g
     stroke="#000"
     stroke-linecap="round"
     stroke-linejoin="round"
     stroke-width="2"
     transform="translate(-96.8482 -53.9889) scale(1.32445)"
     id="g22083">
    <path
       fill="#f36"
       d="M240.35 66.4l-14.4 33.65-12.05-16.5-15.25 15.25-9.5-33.85-22.05 1.7L184.45 135l15.25-1.1 9.75-18.15 6.75 18.15h17.15l30.05-62.4z"
       id="path22079" />
    <path
       fill="#6dbeff"
       d="M296.4 91.8l.85-8q-9.85-1.5-17.3 3.85l.8-3.85h-9.7l-11 53.8h9.3l5.7-26.9q5.1-17.85 21.35-18.9m37.25 38.3q9.65-11.8 10.15-28.95.6-17.3-18.4-17.15-15.75.1-18.8 12.9h8.85q1.95-5.25 10.7-4.75 8.7.5 8.15 10.65h-17.15q-19.25-.05-21.35 16.3-1.35 16.35 16.3 18.4.75.05 1.45.1.55 0 1.05.05 10.55.05 19.05-7.55m-17.1-1q-13.25.35-11.85-10 1.3-7.2 9.3-8.45h19.25q-2.75 18.05-16.7 18.45m83-22.8q1.45-9.55-4.7-18-6.2-8.5-21.35-4.75-15.2 3.75-21.05 21.5-1.8 5.8-10.5 47.9h9.4l4.95-20.65q6.75 6.3 17.6 4.35 12.4-2.05 19.05-11.8 5.1-9.05 6.6-18.55m-19.1-15.1q12.05 1.1 9.3 15.45-4.05 20.45-16.3 22.4-15.1.8-12.15-17.8 4.2-20.3 19.15-20.05m68.15-2.9q-6.2-8.5-21.35-4.75-15.2 3.75-21.05 21.5-1.8 5.8-10.5 47.9h9.4l4.95-20.65q6.75 6.3 17.6 4.35 12.4-2.05 19.05-11.8 5.1-9.05 6.6-18.55 1.45-9.55-4.7-18m-33.55 22.95q4.2-20.3 19.15-20.05 12.05 1.1 9.3 15.45-4.05 20.45-16.3 22.4-15.1.8-12.15-17.8m84.9 3.4q1.95-8 2.15-13.9.7-15.85-13.75-17.05-14.45-1.25-22.8 6-.8.7-1.5 1.45-2.7 2.8-4.55 6.95-1.45 3.2-2.35 7.15-1.7 5.45-2 14.65-.35 9.15 5.75 14.3 4.2 3.5 11.75 3.5 17.6-.05 19.5-13.1h-9.1q-1.65 6.15-10.6 5.2-8.95-.95-8.05-15.15h35.55m-34.05-8Q469.35 92 482.4 91.8q12.35 1 10.35 14.85H465.9m73.65-14.85l.85-8q-9.85-1.5-17.3 3.85l.8-3.85h-9.7l-11 53.8h9.3l5.7-26.9q5.1-17.85 21.35-18.9z"
       id="path22081" />
  </g>
</svg>
